<?xml version="1.0" encoding="utf-8"?>
<!-- Generator: Adobe Illustrator 26.5.0, SVG Export Plug-In . SVG Version: 6.00 Build 0)  -->
<svg version="1.1" id="Calque_1" xmlns="http://www.w3.org/2000/svg" xmlns:xlink="http://www.w3.org/1999/xlink" x="0px" y="0px"
	 viewBox="0 0 1920 1080" style="enable-background:new 0 0 1920 1080;" xml:space="preserve">
<style type="text/css">
	.st0{opacity:0.13;}
	.st1{fill-rule:evenodd;clip-rule:evenodd;fill:#DD4305;}
	.st2{opacity:0.13;fill-rule:evenodd;clip-rule:evenodd;fill:#DD4305;}
</style>
<g class="st0">
	<circle class="st1" cx="51.3" cy="110.5" r="37.3"/>
	<circle class="st1" cx="121.1" cy="28.7" r="27.7"/>
</g>
<g class="st0">
	<circle class="st1" cx="104.2" cy="1053.8" r="18.2"/>
	<g>
		<circle class="st1" cx="387.3" cy="720.2" r="40.4"/>
		<circle class="st1" cx="447.9" cy="648.4" r="31.3"/>
		<circle class="st1" cx="506.6" cy="579.6" r="23.3"/>
		<circle class="st1" cx="565.2" cy="510.9" r="16.2"/>
		<circle class="st1" cx="623.9" cy="442.1" r="23.3"/>
		<circle class="st1" cx="682.5" cy="373.4" r="24.3"/>
		<circle class="st1" cx="155.8" cy="995.2" r="23.3"/>
		<circle class="st1" cx="214.4" cy="926.4" r="16.2"/>
		<circle class="st1" cx="273" cy="857.7" r="23.3"/>
		<circle class="st1" cx="331.7" cy="788.9" r="24.3"/>
		<circle class="st1" cx="805.8" cy="230.8" r="31.3"/>
		<circle class="st1" cx="864.5" cy="162.1" r="23.3"/>
		<circle class="st1" cx="923.1" cy="93.4" r="16.2"/>
		<circle class="st1" cx="981.7" cy="24.6" r="23.3"/>
		<circle class="st1" cx="741.1" cy="304.7" r="40.4"/>
	</g>
</g>
<g class="st0">
	<circle class="st1" cx="838.2" cy="971" r="41.6"/>
	<circle class="st1" cx="781" cy="1041.7" r="25"/>
	<circle class="st1" cx="1210.8" cy="537" r="41.6"/>
	<circle class="st1" cx="1273.2" cy="463.1" r="32.3"/>
	<circle class="st1" cx="1333.6" cy="392.3" r="23.9"/>
	<circle class="st1" cx="1394" cy="321.5" r="16.7"/>
	<circle class="st1" cx="1454.3" cy="250.8" r="23.9"/>
	<circle class="st1" cx="1514.7" cy="180" r="25"/>
	<circle class="st1" cx="912.1" cy="890.8" r="32.3"/>
	<circle class="st1" cx="972.5" cy="820.1" r="23.9"/>
	<circle class="st1" cx="1032.8" cy="749.3" r="16.7"/>
	<circle class="st1" cx="1093.2" cy="678.5" r="23.9"/>
	<circle class="st1" cx="1153.6" cy="607.7" r="25"/>
	<circle class="st1" cx="1641.7" cy="33.3" r="32.3"/>
	<circle class="st1" cx="1575.1" cy="109.2" r="41.6"/>
</g>
<g class="st0">
	<circle class="st1" cx="564.9" cy="1027.6" r="41.4"/>
	<circle class="st1" cx="935.4" cy="596.1" r="41.4"/>
	<circle class="st1" cx="997.5" cy="522.6" r="32.1"/>
	<circle class="st1" cx="1057.5" cy="452.2" r="23.8"/>
	<circle class="st1" cx="1117.5" cy="381.8" r="16.6"/>
	<circle class="st1" cx="1177.5" cy="311.5" r="23.8"/>
	<circle class="st1" cx="1237.6" cy="241.1" r="24.8"/>
	<circle class="st1" cx="638.4" cy="947.9" r="32.1"/>
	<circle class="st1" cx="698.4" cy="877.5" r="23.8"/>
	<circle class="st1" cx="758.4" cy="807.2" r="16.6"/>
	<circle class="st1" cx="818.4" cy="736.8" r="23.8"/>
	<circle class="st1" cx="878.4" cy="666.4" r="24.8"/>
	<circle class="st1" cx="1363.8" cy="95.2" r="32.1"/>
	<circle class="st1" cx="1423.8" cy="24.8" r="23.8"/>
	<circle class="st1" cx="1297.6" cy="170.7" r="41.4"/>
</g>
<g class="st0">
	<circle class="st1" cx="324.3" cy="1050.7" r="21.3"/>
	<circle class="st1" cx="669.5" cy="646.6" r="40.6"/>
	<circle class="st1" cx="730.4" cy="574.6" r="31.5"/>
	<circle class="st1" cx="789.3" cy="505.5" r="23.3"/>
	<circle class="st1" cx="848.1" cy="436.5" r="16.2"/>
	<circle class="st1" cx="907" cy="367.5" r="23.3"/>
	<circle class="st1" cx="965.9" cy="298.4" r="24.4"/>
	<circle class="st1" cx="378.1" cy="991.8" r="31.5"/>
	<circle class="st1" cx="437" cy="922.8" r="23.3"/>
	<circle class="st1" cx="495.9" cy="853.7" r="16.2"/>
	<circle class="st1" cx="554.8" cy="784.7" r="23.3"/>
	<circle class="st1" cx="613.6" cy="715.7" r="24.4"/>
	<circle class="st1" cx="1089.8" cy="155.3" r="31.5"/>
	<circle class="st1" cx="1148.6" cy="86.3" r="23.3"/>
	<circle class="st1" cx="1207.5" cy="17.2" r="16.2"/>
	<circle class="st1" cx="1024.8" cy="229.4" r="40.6"/>
</g>
<g class="st0">
	<circle class="st1" cx="1601.1" cy="908.5" r="40.6"/>
	<circle class="st1" cx="1662.1" cy="836.4" r="31.5"/>
	<circle class="st1" cx="1721" cy="767.3" r="23.4"/>
	<circle class="st1" cx="1779.9" cy="698.3" r="16.3"/>
	<circle class="st1" cx="1838.8" cy="629.2" r="23.4"/>
	<circle class="st1" cx="1897.7" cy="560.1" r="18.3"/>
	<circle class="st1" cx="1486.4" cy="1046.6" r="23.4"/>
	<circle class="st1" cx="1545.3" cy="977.6" r="24.4"/>
</g>
<circle class="st2" cx="1871" cy="1015" r="23"/>
<g class="st0">
	<circle class="st1" cx="1779.3" cy="946.2" r="32.9"/>
	<circle class="st1" cx="1840.8" cy="874.1" r="24.4"/>
	<circle class="st1" cx="1902.3" cy="802" r="17"/>
	<circle class="st1" cx="1711.4" cy="1023.6" r="42.4"/>
</g>
<g class="st0">
	<circle class="st1" cx="1547.9" cy="692.4" r="40.6"/>
	<circle class="st1" cx="1608.8" cy="620.3" r="31.5"/>
	<circle class="st1" cx="1667.7" cy="551.3" r="23.3"/>
	<circle class="st1" cx="1726.6" cy="482.3" r="16.2"/>
	<circle class="st1" cx="1785.5" cy="413.3" r="23.3"/>
	<circle class="st1" cx="1844.3" cy="344.2" r="24.4"/>
	<circle class="st1" cx="1256.6" cy="1037.5" r="31.5"/>
	<circle class="st1" cx="1315.5" cy="968.5" r="23.3"/>
	<circle class="st1" cx="1374.4" cy="899.5" r="16.2"/>
	<circle class="st1" cx="1433.2" cy="830.5" r="23.3"/>
	<circle class="st1" cx="1492.1" cy="761.4" r="24.4"/>
	<circle class="st1" cx="1903.2" cy="275.2" r="14.2"/>
</g>
<g class="st0">
	<circle class="st1" cx="1225" cy="802.6" r="41.1"/>
	<circle class="st1" cx="1286.7" cy="729.6" r="31.9"/>
	<circle class="st1" cx="1346.3" cy="659.7" r="23.6"/>
	<circle class="st1" cx="1405.9" cy="589.9" r="16.4"/>
	<circle class="st1" cx="1465.5" cy="520" r="23.6"/>
	<circle class="st1" cx="1525.1" cy="450.1" r="24.7"/>
	<circle class="st1" cx="999" cy="1068.8" r="9.2"/>
	<circle class="st1" cx="1049.3" cy="1012.2" r="16.4"/>
	<circle class="st1" cx="1108.9" cy="942.3" r="23.6"/>
	<circle class="st1" cx="1168.5" cy="872.5" r="24.7"/>
	<circle class="st1" cx="1650.5" cy="305.2" r="31.9"/>
	<circle class="st1" cx="1710.1" cy="235.3" r="23.6"/>
	<circle class="st1" cx="1769.7" cy="165.4" r="16.4"/>
	<circle class="st1" cx="1829.3" cy="95.5" r="23.6"/>
	<circle class="st1" cx="1888.9" cy="25.7" r="24.7"/>
	<circle class="st1" cx="1584.7" cy="380.2" r="41.1"/>
</g>
<g class="st0">
	<circle class="st1" cx="208.7" cy="174.9" r="42.9"/>
	<circle class="st1" cx="273.1" cy="98.7" r="33.3"/>
	<circle class="st1" cx="335.4" cy="25.7" r="24.7"/>
	<circle class="st1" cx="25.2" cy="393.8" r="17.2"/>
	<circle class="st1" cx="87.4" cy="320.8" r="24.7"/>
	<circle class="st1" cx="149.7" cy="247.9" r="25.8"/>
</g>
<g class="st0">
	<circle class="st1" cx="90.8" cy="802.9" r="40.9"/>
	<circle class="st1" cx="34.5" cy="872.5" r="24.5"/>
	<circle class="st1" cx="457" cy="376.4" r="40.9"/>
	<circle class="st1" cx="518.3" cy="303.8" r="31.7"/>
	<circle class="st1" cx="577.7" cy="234.2" r="23.5"/>
	<circle class="st1" cx="637" cy="164.7" r="16.4"/>
	<circle class="st1" cx="696.3" cy="95.1" r="23.5"/>
	<circle class="st1" cx="755.6" cy="25.5" r="24.5"/>
	<circle class="st1" cx="163.4" cy="724.1" r="31.7"/>
	<circle class="st1" cx="222.7" cy="654.6" r="23.5"/>
	<circle class="st1" cx="282.1" cy="585" r="16.4"/>
	<circle class="st1" cx="341.4" cy="515.5" r="23.5"/>
	<circle class="st1" cx="400.7" cy="445.9" r="24.5"/>
</g>
<g class="st0">
	<circle class="st1" cx="143" cy="508.5" r="39.1"/>
	<circle class="st1" cx="32.5" cy="641.5" r="22.5"/>
	<circle class="st1" cx="89.2" cy="575" r="23.5"/>
	<circle class="st1" cx="493.1" cy="100.7" r="39.1"/>
	<circle class="st1" cx="551.7" cy="31.3" r="30.3"/>
	<circle class="st1" cx="212.4" cy="433.2" r="30.3"/>
	<circle class="st1" cx="269.1" cy="366.7" r="22.5"/>
	<circle class="st1" cx="325.9" cy="300.2" r="15.6"/>
	<circle class="st1" cx="382.6" cy="233.7" r="22.5"/>
	<circle class="st1" cx="439.3" cy="167.2" r="23.5"/>
</g>
</svg>
